<?xml version="1.0" encoding="UTF-8" standalone="no"?>
<svg width="91px" height="83px" viewBox="0 0 91 83" version="1.1" xmlns="http://www.w3.org/2000/svg" xmlns:xlink="http://www.w3.org/1999/xlink" xmlns:sketch="http://www.bohemiancoding.com/sketch/ns">
    <!-- Generator: Sketch 3.5.2 (25235) - http://www.bohemiancoding.com/sketch -->
    <title>Group 4</title>
    <desc>Created with Sketch.</desc>
    <defs></defs>
    <g id="Page-1" stroke="none" stroke-width="1" fill="none" fill-rule="evenodd" sketch:type="MSPage">
        <g id="Desktop-HD" sketch:type="MSArtboardGroup" transform="translate(-1184.000000, -900.000000)">
            <g id="Group-4" sketch:type="MSLayerGroup" transform="translate(1184.000000, 900.000000)">
                <path d="M70.3042726,20 C67.5956174,8.53320001 57.2943265,0 45,0 C32.7056735,0 22.4043826,8.53320001 19.6957274,20 L16.0072809,20 C7.15960128,20 0,27.163444 0,36 C0,44.8384989 7.16670377,52 16.0072809,52 L74.9927191,52 C83.8403987,52 91,44.836556 91,36 C91,27.1615011 83.8332962,20 74.9927191,20 L70.3042726,20 Z" id="Oval-8-Copy" fill="#F0F0F0" sketch:type="MSShapeGroup"></path>
                <path d="M23.1425781,58 L15,74.9570312" id="Path-51" stroke="#84A0CA" stroke-width="6" stroke-linecap="round" stroke-linejoin="round" sketch:type="MSShapeGroup"></path>
                <path d="M43.2851562,63 L35.1425781,79.9570312" id="Path-51-Copy" stroke="#84A0CA" stroke-width="6" stroke-linecap="round" stroke-linejoin="round" sketch:type="MSShapeGroup"></path>
                <path d="M65.1425781,58 L57,74.9570312" id="Path-51-Copy-2" stroke="#84A0CA" stroke-width="6" stroke-linecap="round" stroke-linejoin="round" sketch:type="MSShapeGroup"></path>
            </g>
        </g>
    </g>
</svg>